<?xml version="1.0" encoding="utf-8"?>
<!-- Generator: Adobe Illustrator 28.0.0, SVG Export Plug-In . SVG Version: 6.00 Build 0)  -->
<svg version="1.1" id="Layer_1" xmlns="http://www.w3.org/2000/svg" xmlns:xlink="http://www.w3.org/1999/xlink" x="0px" y="0px"
	 viewBox="0 0 307.3 294.2" style="enable-background:new 0 0 307.3 294.2;" xml:space="preserve">
<g>
	<path d="M160.4,53.6c-9.2-5.2-20.6,1.4-20.6,11.9c-0.1,21.7-0.1,43.4,0,65.1c0,2.3-0.6,2.9-2.9,2.9
		c-14.8-0.1-29.6,0-44.4,0c-8.4,0-14.6,5.9-14.6,13.8c0,8,6.1,13.9,14.4,13.9c20.3,0,40.6,0,60.9,0c8.6,0,14.3-5.9,14.3-14.5
		c0-13.4,0-26.8,0-40.2c0-13.6,0-27.2,0-40.8C167.5,60.3,165,56.2,160.4,53.6z"/>
	<path d="M288.2,107.5c15.5-15.6,21.9-34.2,17.9-55.8c-4.3-23.7-18.3-40-41-47.9c-22.7-7.9-43.7-3.2-62,12.5
		c-1.4,1.2-2.5,1.1-4,0.6c-14.3-5.2-29.2-7.7-44.4-7.8c-15.9-0.2-31.4,2.3-46.4,7.7c-1.4,0.6-2.5,0.9-4-0.4
		C89.6,3.4,72.4-1.9,52.9,1C26.2,4.9,2.7,27,0.2,57.6c-1.5,19.5,5,36.3,19,50c1.3,1.4,1.6,2.5,1.1,4.2c-5,18.7-6.1,37.6-3.1,56.6
		c4.3,27,15.6,50.8,33.9,71.2c0.8,0.9,1.7,1.9,2.5,2.9c-15.9,13.6-13.2,34.2-1.2,44.6c5.7,4.9,12.4,7.5,19.9,7.1
		c13.1-0.7,21.8-7.9,26.6-19.9c36.1,14.8,72,14.9,107.9,0.7c8.3,20.6,30.5,23.3,43.8,14.3c13.4-9.1,18.6-31.3,2.5-46
		c0.7-0.8,1.4-1.6,2.1-2.4c20.8-22.8,32.9-49.7,36-80.4c1.6-16.3,0.1-32.5-4.1-48.4C286.6,110.1,287,109,288.2,107.5z M153.5,257.8
		c-60.5-0.1-110.2-49-110.3-110.3C43.1,86.5,92.9,36.7,153.8,37c61.5,0.2,110.5,49.9,110.2,110.9
		C263.7,209.3,213.7,257.8,153.5,257.8z"/>
</g>
</svg>
