<?xml version="1.0" encoding="utf-8"?>
<!-- Generator: Adobe Illustrator 28.0.0, SVG Export Plug-In . SVG Version: 6.00 Build 0)  -->
<svg version="1.1" id="Layer_1" xmlns="http://www.w3.org/2000/svg" xmlns:xlink="http://www.w3.org/1999/xlink" x="0px"
	 y="0px"
	 viewBox="0 0 544.2 544.2" style="enable-background:new 0 0 544.2 544.2;" xml:space="preserve">
<style type="text/css">
	.st0{fill:#CC0057;}
</style>
	<g>
	<path class="st0" d="M272.3,161.9c-60.9-0.3-110.7,49.5-110.6,110.5c0.1,61.3,49.8,110.2,110.3,110.3
		c60.2,0,110.2-48.5,110.5-109.9C382.8,211.8,333.8,162.1,272.3,161.9z M286,231.4c0,13.4,0,26.8,0,40.2c0,8.6-5.7,14.5-14.3,14.5
		c-20.3,0-40.6,0-60.9,0c-8.3,0-14.4-5.9-14.4-13.9c0-7.9,6.2-13.8,14.6-13.8c14.8,0,29.6-0.1,44.4,0c2.3,0,2.9-0.6,2.9-2.9
		c-0.1-21.7-0.1-43.4,0-65.1c0-10.5,11.4-17.1,20.6-11.9c4.6,2.6,7.1,6.7,7.1,12.1C286,204.2,286,217.8,286,231.4z"/>
		<path class="st0" d="M272.1,0C2.1,0,0,121.8,0,272.1s2.1,272.1,272.1,272.1c270,0,272.1-121.8,272.1-272.1S542.1,0,272.1,0z
		 M405.6,237c4.2,15.9,5.7,32.1,4.1,48.4c-3.1,30.7-15.2,57.6-36,80.4c-0.7,0.8-1.4,1.6-2.1,2.4c16.1,14.7,10.9,36.9-2.5,46
		c-13.3,9-35.5,6.3-43.8-14.3c-35.9,14.2-71.8,14.1-107.9-0.7c-4.8,12-13.5,19.2-26.6,19.9c-7.5,0.4-14.2-2.2-19.9-7.1
		c-12-10.4-14.7-31,1.2-44.6c-0.8-1-1.7-2-2.5-2.9c-18.3-20.4-29.6-44.2-33.9-71.2c-3-19-1.9-37.9,3.1-56.6c0.5-1.7,0.2-2.8-1.1-4.2
		c-14-13.7-20.5-30.5-19-50c2.5-30.6,26-52.7,52.7-56.6c19.5-2.9,36.7,2.4,51.4,15.4c1.5,1.3,2.6,1,4,0.4c15-5.4,30.5-7.9,46.4-7.7
		c15.2,0.1,30.1,2.6,44.4,7.8c1.5,0.5,2.6,0.6,4-0.6c18.3-15.7,39.3-20.4,62-12.5c22.7,7.9,36.7,24.2,41,47.9
		c4,21.6-2.4,40.2-17.9,55.8C405.5,233.9,405.1,235,405.6,237z"/>
</g>
</svg>
