<?xml version="1.0" encoding="UTF-8"?>
<svg width="256px" height="256px" viewBox="0 0 256 256" version="1.1" xmlns="http://www.w3.org/2000/svg" xmlns:xlink="http://www.w3.org/1999/xlink">
    <!-- Generator: Sketch 49.3 (51167) - http://www.bohemiancoding.com/sketch -->
    <title>scheduler</title>
    <desc>Created with Sketch.</desc>
    <defs></defs>
    <g id="scheduler" stroke="none" stroke-width="1" fill="none" fill-rule="evenodd">
        <g id="bg">
            <circle id="Oval-Copy" fill="#FF5500" cx="128" cy="128" r="128"></circle>
            <path d="M48,227.925935 C18.7372005,204.467999 0,168.422153 0,128 C0,57.307552 57.307552,0 128,0 C165.098612,0 198.510978,15.7826939 221.889017,41 L221.641505,41 C199.94208,24.0800455 172.6482,14 143,14 C72.307552,14 15,71.307552 15,142 C15,175.002098 27.4896112,205.087091 48,227.786146 L48,227.925935 Z" id="Combined-Shape" fill="#802B00"></path>
        </g>
        <path d="M95.5023474,95.8169014 C108.713675,82.6055734 124.546079,76 143,76 C161.453921,76 177.233902,82.5531511 190.340386,95.6596143 C203.446849,108.766098 210,124.546079 210,143 C210,161.453921 203.446849,177.233902 190.340386,190.340376 C177.233902,203.446857 161.453921,210 143,210 C124.546079,210 108.766098,203.446857 95.6596244,190.340376 C82.553143,177.233902 76,161.453921 76,143 C76,124.546079 82.5007167,108.81854 95.5023474,95.8169014 Z M105.420588,181.264706 C115.910838,191.754954 128.603848,197 143.5,197 C158.396152,197 171.036714,191.754954 181.422069,181.264706 C191.807403,170.774456 197,158.186342 197,143.5 C197,128.813658 191.807403,116.225544 181.422069,105.735294 C171.036714,95.2450443 158.396152,90 143.5,90 C128.603848,90 115.963286,95.2450443 105.577931,105.735294 C95.1925947,116.225544 90,128.813658 90,143.5 C90,158.186342 95.1401451,170.774456 105.420588,181.264706 Z M146,110 L146,144.902062 L176,162.824742 L171,171 L136,149.93299 L136,110 L146,110 Z" id="Page-1" fill="#802B00"></path>
        <path d="M80.5023474,80.8169014 C93.7136754,67.6055734 109.546079,61 128,61 C146.453921,61 162.233902,67.5531511 175.340386,80.6596143 C188.446849,93.7660977 195,109.546079 195,128 C195,146.453921 188.446849,162.233902 175.340386,175.340376 C162.233902,188.446857 146.453921,195 128,195 C109.546079,195 93.7660977,188.446857 80.6596244,175.340376 C67.553143,162.233902 61,146.453921 61,128 C61,109.546079 67.5007167,93.8185402 80.5023474,80.8169014 Z M90.4205882,166.264706 C100.910838,176.754954 113.603848,182 128.5,182 C143.396152,182 156.036714,176.754954 166.422069,166.264706 C176.807403,155.774456 182,143.186342 182,128.5 C182,113.813658 176.807403,101.225544 166.422069,90.7352941 C156.036714,80.2450443 143.396152,75 128.5,75 C113.603848,75 100.963286,80.2450443 90.5779311,90.7352941 C80.1925947,101.225544 75,113.813658 75,128.5 C75,143.186342 80.1401451,155.774456 90.4205882,166.264706 Z M131,95 L131,129.902062 L161,147.824742 L156,156 L121,134.93299 L121,95 L131,95 Z" id="Page-1" fill="#FFFFFF"></path>
    </g>
</svg>